<?xml version="1.0" encoding="utf-8"?><svg xmlns="http://www.w3.org/2000/svg" xmlns:xlink="http://www.w3.org/1999/xlink"><symbol viewBox="0 0 791.966 791.967" id="arrow-left" xmlns="http://www.w3.org/2000/svg"><path d="M245.454 396.017L617.077 56.579c12.973-12.94 12.973-33.934 0-46.874-12.973-12.94-34.033-12.94-47.006 0L174.615 370.896c-6.932 6.899-9.87 16.076-9.408 25.087-.462 9.045 2.476 18.188 9.408 25.088l395.456 361.19c12.973 12.94 34.033 12.94 47.006 0 12.973-12.939 12.973-33.934 0-46.873L245.454 396.017z"/></symbol><symbol viewBox="0 0 792.033 792.033" id="arrow-right" xmlns="http://www.w3.org/2000/svg"><path d="M617.858 370.896L221.513 9.705c-13.006-12.94-34.099-12.94-47.105 0-13.006 12.939-13.006 33.934 0 46.874l372.447 339.438-372.414 339.437c-13.006 12.94-13.006 33.935 0 46.874s34.099 12.939 47.104 0l396.346-361.191c6.932-6.898 9.904-16.043 9.441-25.087.431-9.078-2.54-18.222-9.474-25.154z"/></symbol><symbol viewBox="0 0 17.1 21.3" id="basket" xmlns="http://www.w3.org/2000/svg"><path class="cdst0" d="M16 20.3H1v-15l15.1.1z"/><path class="cdst0 cdst1" d="M5.1 5.4c0-5.7 6.7-5.9 6.7 0"/></symbol><symbol viewBox="0 0 25 25" id="close" xmlns="http://www.w3.org/2000/svg"><path d="M22.898.02l2.08 2.08L14.58 12.5l10.398 10.398-2.08 2.08L12.5 14.579 2.1 24.978l-2.079-2.08L10.42 12.499.02 2.101 2.101.02 12.5 10.418z"/><path d="M22.898.02l2.08 2.08L14.58 12.5l10.398 10.398-2.08 2.08L12.5 14.579 2.1 24.978l-2.079-2.08L10.42 12.499.02 2.101 2.101.02 12.5 10.418z"/></symbol><symbol viewBox="0 0 96.124 96.123" id="facebook" xmlns="http://www.w3.org/2000/svg"><path d="M72.089.02L59.624 0C45.62 0 36.57 9.285 36.57 23.656v10.907H24.037a1.96 1.96 0 00-1.96 1.961v15.803a1.96 1.96 0 001.96 1.96H36.57v39.876a1.96 1.96 0 001.96 1.96h16.352a1.96 1.96 0 001.96-1.96V54.287h14.654a1.96 1.96 0 001.96-1.96l.006-15.803a1.963 1.963 0 00-1.961-1.961H56.842v-9.246c0-4.444 1.059-6.7 6.848-6.7l8.397-.003a1.96 1.96 0 001.959-1.96V1.98A1.96 1.96 0 0072.089.02z"/></symbol><symbol viewBox="0 0 96.124 96.123" id="facebook-logo" xmlns="http://www.w3.org/2000/svg"><path d="M72.089.02L59.624 0C45.62 0 36.57 9.285 36.57 23.656v10.907H24.037a1.96 1.96 0 00-1.96 1.961v15.803a1.96 1.96 0 001.96 1.96H36.57v39.876a1.96 1.96 0 001.96 1.96h16.352a1.96 1.96 0 001.96-1.96V54.287h14.654a1.96 1.96 0 001.96-1.96l.006-15.803a1.963 1.963 0 00-1.961-1.961H56.842v-9.246c0-4.444 1.059-6.7 6.848-6.7l8.397-.003a1.96 1.96 0 001.959-1.96V1.98A1.96 1.96 0 0072.089.02z"/></symbol><symbol viewBox="0 0 21.6 19.1" id="heart" xmlns="http://www.w3.org/2000/svg"><path class="ggst0" d="M10.8 3.7c5.5-6.8 12.6 1.4 8.7 5.7l-8.8 8.8L2 9.4C-1.5 5 5.3-3.2 10.8 3.7z"/></symbol><symbol viewBox="0 0 26 26" id="instagram" xmlns="http://www.w3.org/2000/svg"><path d="M20 7c-.551 0-1-.449-1-1V4c0-.551.449-1 1-1h2c.551 0 1 .449 1 1v2c0 .551-.449 1-1 1h-2zm-7 2.188c-.726 0-1.396.213-1.973.563.18-.056.367-.093.564-.093a1.933 1.933 0 11-1.933 1.934c0-.199.039-.386.094-.565A3.77 3.77 0 009.188 13a3.81 3.81 0 003.813 3.813A3.812 3.812 0 1013 9.188z"/><path d="M13 7a6 6 0 110 12 6 6 0 010-12m0-2c-4.411 0-8 3.589-8 8s3.589 8 8 8 8-3.589 8-8-3.589-8-8-8z"/><path d="M21.125 0H4.875A4.874 4.874 0 000 4.875v16.25A4.874 4.874 0 004.875 26h16.25A4.874 4.874 0 0026 21.125V4.875A4.874 4.874 0 0021.125 0zM24 9h-6.537A5.97 5.97 0 0119 13a6 6 0 01-12 0c0-1.539.584-2.938 1.537-4H2V4.875A2.879 2.879 0 014.875 2h16.25A2.878 2.878 0 0124 4.875V9z"/></symbol><symbol viewBox="0 0 512 512" id="location" xmlns="http://www.w3.org/2000/svg"><path d="M256 0C153.755 0 70.573 83.182 70.573 185.426c0 126.888 165.939 313.167 173.004 321.035 6.636 7.391 18.222 7.378 24.846 0 7.065-7.868 173.004-194.147 173.004-321.035C441.425 83.182 358.244 0 256 0zm0 469.729c-55.847-66.338-152.035-197.217-152.035-284.301 0-83.834 68.202-152.036 152.035-152.036s152.035 68.202 152.035 152.035C408.034 272.515 311.861 403.37 256 469.729z"/><path d="M256 92.134c-51.442 0-93.292 41.851-93.292 93.293S204.559 278.72 256 278.72s93.291-41.851 93.291-93.293S307.441 92.134 256 92.134zm0 153.194c-33.03 0-59.9-26.871-59.9-59.901s26.871-59.901 59.9-59.901 59.9 26.871 59.9 59.901-26.871 59.901-59.9 59.901z"/></symbol><symbol viewBox="0 0 320.002 320.002" id="logout" xmlns="http://www.w3.org/2000/svg"><path d="M51.213 175.001h173.785c8.284 0 15-6.716 15-15 0-8.284-6.716-15-15-15H51.213l19.394-19.394c5.858-5.858 5.858-15.355 0-21.213-5.857-5.858-15.355-5.858-21.213 0L4.396 149.393c-.351.351-.683.719-.997 1.103-.137.167-.256.344-.385.515-.165.22-.335.435-.488.664-.14.209-.261.426-.389.64-.123.206-.252.407-.365.619-.118.22-.217.446-.323.67-.104.219-.213.435-.306.659-.09.219-.164.442-.243.664-.087.24-.179.477-.253.722-.067.222-.116.447-.172.672-.063.249-.133.497-.183.751-.051.259-.082.521-.119.782-.032.223-.075.443-.097.669a15.09 15.09 0 00-.074 1.457l-.001.022.001.022c.001.487.026.973.074 1.458.022.223.064.44.095.661.038.264.069.528.121.79.05.252.119.496.182.743.057.227.107.456.175.681.073.241.164.474.248.71.081.226.155.453.247.675.091.22.198.431.3.646.108.229.21.46.33.685.11.205.235.4.354.599.131.221.256.444.4.659.146.219.309.424.466.635.136.181.262.368.407.544.299.364.616.713.947 1.048.016.016.029.034.045.05l45 45.001A14.956 14.956 0 0060 220.003a14.96 14.96 0 0010.606-4.393c5.858-5.858 5.858-15.355.001-21.213l-19.394-19.396z"/><path d="M305.002 25h-190c-8.284 0-15 6.716-15 15v60c0 8.284 6.716 15 15 15s15-6.716 15-15V55h160v210.001h-160V220c0-8.284-6.716-15-15-15s-15 6.716-15 15v60.001c0 8.284 6.716 15 15 15h190c8.284 0 15-6.716 15-15V40c0-8.284-6.716-15-15-15z"/></symbol><symbol id="long-arrow" viewBox="0 0 11.36 3.15" xml:space="preserve" shape-rendering="geometricPrecision" text-rendering="geometricPrecision" image-rendering="optimizeQuality" fill-rule="evenodd" clip-rule="evenodd" xmlns="http://www.w3.org/2000/svg"><defs id="kdefs12"><style id="kstyle10" type="text/css">.kfil0{fill:#fefefe}</style></defs><g id="kLayer_x0020_1"><path id="krect15" class="kfil0" d="M0 1.24h11.36v.65H0z"/><path id="kpolygon17" class="kfil0" d="M9.41 3.15h.66v-.31h.33v-.31h.33v-.31h.32V.94h-.32V.62h-.33V.31h-.33V0h-.66v.62h.32v.32h.35v1.28h-.35v.31h-.32v.31z"/></g></symbol><symbol id="mail" viewBox="0 0 5.91 4.53" xml:space="preserve" shape-rendering="geometricPrecision" text-rendering="geometricPrecision" image-rendering="optimizeQuality" fill-rule="evenodd" clip-rule="evenodd" xmlns="http://www.w3.org/2000/svg"><defs id="ldefs12"><style id="lstyle10" type="text/css">.lfil0{fill:#fefefe;fill-rule:nonzero}</style></defs><g id="lLayer_x0020_1"><path id="lpath15" d="M5.91.29v4.24H0V0h5.91v.29zm-.58 3.65V.58H.59v3.36h4.74z" class="lfil0"/><path id="lpath17" d="M5.78.54L3.11 2.57a.3.3 0 01-.37-.01L.11.52A.289.289 0 01.06.11C.12.04.2 0 .29 0h5.33c.16 0 .29.13.29.29 0 .1-.05.19-.13.24zM2.93 1.98L4.75.59H1.14l1.79 1.39z" class="lfil0"/></g></symbol><symbol viewBox="0 0 24 24" id="odnoklassniki" xmlns="http://www.w3.org/2000/svg"><path d="M4.721 12.881c-.613 1.205.083 1.781 1.671 2.765 1.35.834 3.215 1.139 4.413 1.261l-4.721 4.541c-1.374 1.317.838 3.43 2.211 2.141l3.717-3.585c1.423 1.369 2.787 2.681 3.717 3.59 1.374 1.294 3.585-.801 2.226-2.141-.102-.097-5.037-4.831-4.736-4.541 1.213-.122 3.05-.445 4.384-1.261l-.001-.001c1.588-.989 2.284-1.564 1.68-2.769-.365-.684-1.349-1.256-2.659-.267 0 0-1.769 1.355-4.622 1.355-2.854 0-4.622-1.355-4.622-1.355-1.309-.994-2.297-.417-2.658.267z"/><path d="M11.999 12.142c3.478 0 6.318-2.718 6.318-6.064 0-3.36-2.84-6.078-6.318-6.078C8.52 0 5.68 2.718 5.68 6.078c0 3.346 2.84 6.064 6.319 6.064zm0-9.063c1.709 0 3.103 1.341 3.103 2.999 0 1.644-1.394 2.985-3.103 2.985S8.896 7.722 8.896 6.078c-.001-1.659 1.393-2.999 3.103-2.999z"/></symbol><symbol id="phone" viewBox="0 0 3.56 4.65" xml:space="preserve" shape-rendering="geometricPrecision" text-rendering="geometricPrecision" image-rendering="optimizeQuality" fill-rule="evenodd" clip-rule="evenodd" xmlns="http://www.w3.org/2000/svg"><defs id="ndefs12"><style id="nstyle10" type="text/css">.nstr0{stroke:#fefefe;stroke-width:.46;stroke-miterlimit:22.9256}.nfil0{fill:none}</style></defs><g id="nLayer_x0020_1"><path id="nrect15" class="nfil0 nstr0" d="M.23.23h3.1v4.19H.23z"/><path id="nline17" class="nfil0 nstr0" d="M1.36 3.41h.85"/></g></symbol><symbol viewBox="0 0 16 19" id="play" xmlns="http://www.w3.org/2000/svg"><defs><clipPath id="oa"><path d="M15.995 9.496l-16 9.505V-.008z"/></clipPath></defs><path d="M15.995 9.496l-16 9.505V-.008z"/><path d="M15.995 9.496l-16 9.505V-.008z"/><path d="M15.995 9.496l-16 9.505V-.008z" clip-path="url(#oa)"/></symbol><symbol id="search" viewBox="0 0 3.6 3.6" xml:space="preserve" shape-rendering="geometricPrecision" text-rendering="geometricPrecision" image-rendering="optimizeQuality" fill-rule="evenodd" clip-rule="evenodd" xmlns="http://www.w3.org/2000/svg"><defs id="pdefs12"><style id="pstyle10" type="text/css">.pfil0{fill:#000}</style></defs><g id="pLayer_x0020_1"><path id="ppolygon15" class="pfil0" d="M2.32 2.6l1 1 .28-.28-1-1z"/><path id="ppath17" d="M2.64.45a1.545 1.545 0 010 2.18 1.545 1.545 0 01-2.18 0 1.545 1.545 0 010-2.18 1.545 1.545 0 012.18 0zm.06 1.09c0-.29-.11-.59-.34-.81a1.137 1.137 0 00-1.62 0C.52.95.4 1.25.4 1.54c0 .29.11.59.34.81.22.22.52.34.81.34.29 0 .59-.11.81-.34.23-.22.34-.52.34-.81z" class="pfil0"/></g></symbol><symbol id="user" viewBox="0 0 4.99 5.15" xml:space="preserve" shape-rendering="geometricPrecision" text-rendering="geometricPrecision" image-rendering="optimizeQuality" fill-rule="evenodd" clip-rule="evenodd" xmlns="http://www.w3.org/2000/svg"><defs id="qdefs28"><style id="qstyle26" type="text/css">.qfil0{fill:#2b2a29;fill-rule:nonzero}</style></defs><g id="qLayer_x0020_1"><path id="qpath31" d="M4.26 3.32c.49.49.73 1.13.73 1.76v.07h-.52v-.07c0-.51-.19-1.01-.58-1.4a1.96 1.96 0 00-1.4-.58c-.51 0-1.01.19-1.4.58-.39.39-.58.89-.58 1.4v.07h-.52v-.07c0-.64.24-1.28.73-1.76.49-.49 1.13-.73 1.76-.73.64 0 1.28.24 1.76.73z" class="qfil0"/><path id="qpath33" d="M3.05 1.86a.78.78 0 00.23-.55c0-.2-.08-.4-.23-.55A.78.78 0 002.5.53c-.2 0-.4.08-.55.23a.78.78 0 00-.23.55c0 .2.08.4.23.55.15.15.35.23.55.23.2 0 .4-.08.55-.23zm.75-.55c0 .33-.13.67-.38.92s-.59.38-.92.38c-.33 0-.67-.13-.92-.38s-.38-.59-.38-.92c0-.33.13-.67.38-.92s.59-.38.92-.38c.33 0 .67.13.92.38s.38.59.38.92z" class="qfil0"/></g></symbol><symbol viewBox="0 0 511.962 511.962" id="vk" xmlns="http://www.w3.org/2000/svg"><path d="M507.399 370.471c-1.376-2.304-9.888-20.8-50.848-58.816-42.88-39.808-37.12-33.344 14.528-102.176 31.456-41.92 44.032-67.52 40.096-78.464-3.744-10.432-26.88-7.68-26.88-7.68l-76.928.448s-5.696-.768-9.952 1.76c-4.128 2.496-6.784 8.256-6.784 8.256s-12.192 32.448-28.448 60.032c-34.272 58.208-48 61.28-53.6 57.664-13.024-8.416-9.76-33.856-9.76-51.904 0-56.416 8.544-79.936-16.672-86.016-8.384-2.016-14.528-3.36-35.936-3.584-27.456-.288-50.72.096-63.872 6.528-8.768 4.288-15.52 13.856-11.392 14.4 5.088.672 16.608 3.104 22.72 11.424 7.904 10.72 7.616 34.848 7.616 34.848s4.544 66.4-10.592 74.656c-10.4 5.664-24.64-5.888-55.2-58.72-15.648-27.04-27.488-56.96-27.488-56.96s-2.272-5.568-6.336-8.544c-4.928-3.616-11.84-4.768-11.84-4.768l-73.152.448s-10.976.32-15.008 5.088c-3.584 4.256-.288 13.024-.288 13.024s57.28 133.984 122.112 201.536c59.488 61.92 127.008 57.856 127.008 57.856h30.592s9.248-1.024 13.952-6.112c4.352-4.672 4.192-13.44 4.192-13.44s-.608-41.056 18.464-47.104c18.784-5.952 42.912 39.68 68.48 57.248 19.328 13.28 34.016 10.368 34.016 10.368l68.384-.96s35.776-2.208 18.816-30.336z"/></symbol></svg>