<svg viewBox="0 0 512 394.59" id="eye-close" xmlns="http://www.w3.org/2000/svg"><path d="M508.74 188.84C504.17 182.58 395.19 35.63 256 35.63S7.82 182.58 3.25 188.83a16.91 16.91 0 0 0 0 19.93C7.82 215 116.81 362 256 362s248.17-147 252.74-153.24a16.87 16.87 0 0 0 0-19.92zM256 328.2c-102.53 0-191.33-97.53-217.62-129.41C64.63 166.87 153.25 69.39 256 69.39c102.52 0 191.32 97.52 217.61 129.42C447.36 230.72 358.75 328.2 256 328.2z"></path><path d="M256 97.52A101.28 101.28 0 1 0 357.27 198.8 101.4 101.4 0 0 0 256 97.52zm0 168.79a67.52 67.52 0 1 1 67.51-67.51A67.59 67.59 0 0 1 256 266.31z"></path><path d="M425.2-.003l28.094 28.094-366.5 366.5L58.7 366.498z"></path></svg>