<svg viewBox="0 0 100 94.99" id="like" xmlns="http://www.w3.org/2000/svg"><path d="M36.35 95l.14-.13.12-.13a2 2 0 0 1 .11-.26v-6.21c-.08-6.53-.08-13.16-.08-19.57 0-5.35 0-12.41.08-19.57 0-.51 0-3.72.08-5.9l.09-3.88H8.71a8.25 8.25 0 0 0-8 4.85c-.14.29-.25.57-.35.81l-.11.25L0 46v43l.5.88c.08.13.16.3.25.48a10.83 10.83 0 0 0 1.29 2A7.7 7.7 0 0 0 8 95h28.35zm-7.27-48v2.08C29 56.3 29 63.35 29 68.7c0 6.14 0 12.49.07 18.77H7.76a4.33 4.33 0 0 1-.23-.41V47.42c.15-.32.22-.47 1.08-.47h20.47V47z"></path><path d="M40.67 92.2a16.73 16.73 0 0 1-9.17-2.6l-1.78-1.13v-2.11c.07-10 .1-20.84.1-34.22V41.63l1-1.09L32 39a50.08 50.08 0 0 0 3.34-4.48c1.88-3 3.7-6.2 5.46-9.26l2.26-3.92a1.67 1.67 0 0 0 .23-1c-.09-2.13-.13-4.28-.17-6.35 0-1.22 0-2.49-.08-3.73a9 9 0 0 1 5.13-8.55A14.61 14.61 0 0 1 61 1.27a9.77 9.77 0 0 1 5.52 5.84l.93 2.42c.84 2.2 1.7 4.47 2.49 6.75a23.26 23.26 0 0 1 .52 12.33c-.27 1.38-.5 2.76-.74 4.19h17.86a16 16 0 0 1 5.17.83 10.59 10.59 0 0 1 6.86 7.9 1.61 1.61 0 0 0 .13.42l.1.31.16.58v4.54l-.4.53a14.13 14.13 0 0 1-2 4.59 13.74 13.74 0 0 1 .51 3 13.21 13.21 0 0 1-2.37 7.88 11.71 11.71 0 0 1 .45 2.5 14.06 14.06 0 0 1-2.34 8.54 15.58 15.58 0 0 1 .27 4.72 13.4 13.4 0 0 1-9.51 12 23.81 23.81 0 0 1-7.41 1H40.67zm-3.34-8.13a9.87 9.87 0 0 0 3.41.55c8.93-.05 18 0 26.79 0h9.66a16.58 16.58 0 0 0 5-.61 5.83 5.83 0 0 0 4.3-5.37 7.2 7.2 0 0 0-.3-3.13 4.74 4.74 0 0 1 .81-4.46 6.88 6.88 0 0 0 1.62-4.67 9.48 9.48 0 0 0-.48-1.85 4.9 4.9 0 0 1 .86-4.7 6.23 6.23 0 0 0 1.55-4.07 7.82 7.82 0 0 0-.29-1.44c-.11-.43-.23-.91-.33-1.43a4.54 4.54 0 0 1 1-4.08 6.56 6.56 0 0 0 1.43-3.28V44c0-.17-.1-.35-.15-.55-.47-1.84-1.29-2.36-2-2.62a8.32 8.32 0 0 0-2.71-.4H66.22a4.24 4.24 0 0 1-4.67-3.76 4.11 4.11 0 0 1 .13-1.6l.42-2.55c.28-1.74.57-3.54.92-5.33a15.76 15.76 0 0 0-.25-8.4c-.74-2.17-1.59-4.38-2.4-6.51l-.94-2.48a2.27 2.27 0 0 0-1.36-1.52 7 7 0 0 0-6.38.15 1.52 1.52 0 0 0-1.07 1.62c0 1.27.06 2.55.08 3.78 0 2 .08 4.14.17 6.19a9.37 9.37 0 0 1-1.25 5.14L47.38 29c-1.79 3.12-3.65 6.35-5.59 9.48A55.7 55.7 0 0 1 38 43.75l-.55.68v7.72c-.04 12.38-.06 22.57-.12 31.92z"></path></svg>