<svg viewBox="0 0 7.4 8.23" shape-rendering="geometricPrecision" text-rendering="geometricPrecision" image-rendering="optimizeQuality" fill-rule="evenodd" clip-rule="evenodd" id="icon-reset" xmlns="http://www.w3.org/2000/svg"><path d="M2.5 2.15c.2 0 .36.16.36.36 0 .2-.16.36-.36.36H.28c-.02 0-.04-.01-.06-.02l-.04-.02-.02-.01a.376.376 0 0 1-.17-.3V.36c0-.2.16-.36.36-.36.2 0 .36.16.36.36v1.12C1.44.77 2.43.36 3.46.36 5.63.36 7.4 2.12 7.4 4.3c0 2.17-1.76 3.94-3.94 3.94-1.41 0-2.71-.75-3.41-1.97a.329.329 0 0 1-.04-.17c0-.2.16-.36.36-.36.12 0 .24.06.3.17.57 1 1.64 1.61 2.79 1.61 1.78 0 3.22-1.44 3.22-3.22 0-1.78-1.44-3.22-3.22-3.22-.91 0-1.79.39-2.4 1.07H2.5z"></path></svg>