<?xml version="1.0" encoding="UTF-8" standalone="no"?>
<svg
   xmlns:dc="http://purl.org/dc/elements/1.1/"
   xmlns:cc="http://creativecommons.org/ns#"
   xmlns:rdf="http://www.w3.org/1999/02/22-rdf-syntax-ns#"
   xmlns:svg="http://www.w3.org/2000/svg"
   xmlns="http://www.w3.org/2000/svg"
   xmlns:sodipodi="http://sodipodi.sourceforge.net/DTD/sodipodi-0.dtd"
   xmlns:inkscape="http://www.inkscape.org/namespaces/inkscape"
   inkscape:version="1.0 (4035a4f, 2020-05-01)"
   sodipodi:docname="search.svg"
   id="svg20"
   viewBox="0 0 3.6 3.6"
   style="shape-rendering:geometricPrecision; text-rendering:geometricPrecision; image-rendering:optimizeQuality; fill-rule:evenodd; clip-rule:evenodd"
   version="1.1"
   height="6.8627mm"
   width="6.8626mm"
   xml:space="preserve"><metadata
   id="metadata24"><rdf:RDF><cc:Work
       rdf:about=""><dc:format>image/svg+xml</dc:format><dc:type
         rdf:resource="http://purl.org/dc/dcmitype/StillImage" /><dc:title></dc:title></cc:Work></rdf:RDF></metadata><sodipodi:namedview
   inkscape:current-layer="svg20"
   inkscape:window-maximized="0"
   inkscape:window-y="23"
   inkscape:window-x="0"
   inkscape:cy="12.968882"
   inkscape:cx="12.968693"
   inkscape:zoom="25.792509"
   showgrid="false"
   id="namedview22"
   inkscape:window-height="480"
   inkscape:window-width="711"
   inkscape:pageshadow="2"
   inkscape:pageopacity="0"
   guidetolerance="10"
   gridtolerance="10"
   objecttolerance="10"
   borderopacity="1"
   bordercolor="#666666"
   pagecolor="#ffffff" />
 <defs
   id="defs12">
  <style
   id="style10"
   type="text/css">
   <![CDATA[
    .fil0 {fill:black}
   ]]>
  </style>
 </defs>
 <g
   id="Layer_x0020_1">
  <metadata
   id="CorelCorpID_0Corel-Layer" />
  <polygon
   id="polygon15"
   points="2.32,2.6 3.32,3.6 3.6,3.32 2.6,2.32 "
   class="fil0" />
  <path
   id="path17"
   d="M2.64 0.45c0.3,0.3 0.45,0.7 0.45,1.09l-0 0c0,0.4 -0.15,0.79 -0.45,1.09l0 0c-0.3,0.3 -0.7,0.45 -1.09,0.45 -0.4,0 -0.79,-0.15 -1.09,-0.45 -0.3,-0.3 -0.45,-0.7 -0.45,-1.09 0,-0.4 0.15,-0.79 0.45,-1.09 0.3,-0.3 0.7,-0.45 1.09,-0.45l0 0c0.4,0 0.79,0.15 1.09,0.45zm0.06 1.09l-0 0c0,-0.29 -0.11,-0.59 -0.34,-0.81 -0.23,-0.23 -0.52,-0.34 -0.81,-0.34l0 0c-0.29,0 -0.59,0.11 -0.81,0.34 -0.22,0.22 -0.34,0.52 -0.34,0.81 0,0.29 0.11,0.59 0.34,0.81 0.22,0.22 0.52,0.34 0.81,0.34 0.29,0 0.59,-0.11 0.81,-0.34 0.23,-0.22 0.34,-0.52 0.34,-0.81z"
   class="fil0" />
 </g>
</svg>
