<svg xmlns="http://www.w3.org/2000/svg" width="18" height="20" viewBox="0 0 18 20"><defs><clipPath id="r1qxa"><path d="M5 0a3 3 0 1 1 0 6 3 3 0 0 1 0-6z"/></clipPath><clipPath id="r1qxb"><path d="M9 7a3 3 0 1 1 0 6 3 3 0 0 1 0-6z"/></clipPath><clipPath id="r1qxc"><path d="M13 14a3 3 0 1 1 0 6 3 3 0 0 1 0-6z"/></clipPath></defs><g><g><path d="M0 2h18v2H0zm0 7h18v2H0zm0 7h18v2H0z"/><path d="M0 2h18v2H0zm0 7h18v2H0zm0 7h18v2H0z"/></g><g><path d="M5 0a3 3 0 1 1 0 6 3 3 0 0 1 0-6z"/><path d="M5 0a3 3 0 1 1 0 6 3 3 0 0 1 0-6z"/><path stroke="#1e2026" stroke-linecap="round" stroke-linejoin="round" stroke-miterlimit="20" stroke-width="4" d="M5 0a3 3 0 1 1 0 6 3 3 0 0 1 0-6z" clip-path="url(&quot;#r1qxa&quot;)"/></g><g><path d="M9 7a3 3 0 1 1 0 6 3 3 0 0 1 0-6z"/><path d="M9 7a3 3 0 1 1 0 6 3 3 0 0 1 0-6z"/><path stroke="#1e2026" stroke-linecap="round" stroke-linejoin="round" stroke-miterlimit="20" stroke-width="4" d="M9 7a3 3 0 1 1 0 6 3 3 0 0 1 0-6z" clip-path="url(&quot;#r1qxb&quot;)"/></g><g><path d="M13 14a3 3 0 1 1 0 6 3 3 0 0 1 0-6z"/><path fill="#fff" d="M13 14a3 3 0 1 1 0 6 3 3 0 0 1 0-6z"/><path stroke="#1e2026" stroke-linecap="round" stroke-linejoin="round" stroke-miterlimit="20" stroke-width="4" d="M13 14a3 3 0 1 1 0 6 3 3 0 0 1 0-6z" clip-path="url(&quot;#r1qxc&quot;)"/></g></g></svg>